<?xml version="1.0" encoding="UTF-8" standalone="no"?>
<!-- Created with Inkscape (http://www.inkscape.org/) -->

<svg
   width="199.55083mm"
   height="198.74301mm"
   viewBox="0 0 199.55083 198.74301"
   version="1.1"
   id="svg1"
   xml:space="preserve"
   inkscape:version="1.4.2 (ebf0e94, 2025-05-08)"
   sodipodi:docname="icon.svg"
   xmlns:inkscape="http://www.inkscape.org/namespaces/inkscape"
   xmlns:sodipodi="http://sodipodi.sourceforge.net/DTD/sodipodi-0.dtd"
   xmlns="http://www.w3.org/2000/svg"
   xmlns:svg="http://www.w3.org/2000/svg"><sodipodi:namedview
     id="namedview1"
     pagecolor="#000000"
     bordercolor="#000000"
     borderopacity="0.25"
     inkscape:showpageshadow="2"
     inkscape:pageopacity="0.0"
     inkscape:pagecheckerboard="0"
     inkscape:deskcolor="#d1d1d1"
     inkscape:document-units="mm"
     inkscape:zoom="1.0592242"
     inkscape:cx="151.05395"
     inkscape:cy="387.5478"
     inkscape:window-width="2560"
     inkscape:window-height="1369"
     inkscape:window-x="-8"
     inkscape:window-y="-8"
     inkscape:window-maximized="1"
     inkscape:current-layer="layer1" /><defs
     id="defs1" /><g
     inkscape:label="Layer 1"
     inkscape:groupmode="layer"
     id="layer1"
     transform="translate(-5.0180782,-27.582556)"><path
       style="fill:#4f4f4f;stroke:#4f4f4f;stroke-width:1.78131;stroke-linecap:round;stroke-dashoffset:273.707"
       d=""
       id="path2"
       transform="scale(0.26458333)" /><path
       style="fill:#4f4f4f;stroke:#4f4f4f;stroke-width:1.78131;stroke-linecap:round;stroke-dashoffset:273.707"
       d=""
       id="path3"
       transform="scale(0.26458333)" /><path
       style="fill:#000000;stroke:#4f4f4f;stroke-width:0.890655;stroke-linecap:round;stroke-dashoffset:273.707"
       d=""
       id="path6"
       transform="scale(0.26458333)" /><path
       style="fill:#000000;stroke:#4f4f4f;stroke-width:0.890655;stroke-linecap:round;stroke-dashoffset:273.707"
       d=""
       id="path9"
       transform="scale(0.26458333)" /><path
       style="fill:#000000;stroke:#4f4f4f;stroke-width:0.890655;stroke-linecap:round;stroke-dashoffset:273.707"
       d=""
       id="path10"
       transform="scale(0.26458333)" /><path
       style="fill:#000000;stroke:#4f4f4f;stroke-width:0.890655;stroke-linecap:round;stroke-dashoffset:273.707"
       d=""
       id="path15"
       transform="scale(0.26458333)" /><path
       style="fill:#000000;stroke:none;stroke-width:0.890655;stroke-linecap:round;stroke-dashoffset:273.707"
       d=""
       id="path32"
       transform="scale(0.26458333)" /><path
       style="fill:#ffffff;fill-opacity:1;stroke:none"
       d="m 31.630151,180.85775 c 1.820237,-15.06984 2.423,-29.27583 5.06964,-38.95989 3.08563,-11.29035 9.77981,-18.07432 20.90817,-21.18861 1.89177,-0.52941 3.97536,-1.11208 4.6302,-1.29482 1.34104,-0.37423 1.25566,0.011 0.91323,-4.12089 -0.44158,-5.32826 2.2198,-8.52802 7.70528,-9.26402 3.20304,-0.42975 25.344988,-0.20342 26.571077,0.27161 2.685872,1.04061 4.721392,3.42958 5.450722,6.39721 0.39224,1.59601 0.39481,1.9349 0.0282,3.70417 -0.22195,1.07109 -0.47866,2.1349 -0.57047,2.36402 -0.13807,0.3446 0.49125,0.58053 3.6421,1.36538 4.30344,1.07195 9.45594,3.08976 12.46995,4.88344 3.64407,2.16864 6.41465,5.21274 8.05789,8.85338 1.15265,2.55371 3.20079,8.48595 3.20079,9.27076 0,0.7745 -1.00929,1.75992 -2.67063,2.60747 -1.80814,0.92245 -1.92335,0.8339 -3.02873,-2.32775 -2.15927,-6.17599 -2.99297,-7.80894 -5.27408,-10.33026 -2.1169,-2.33982 -4.23244,-3.65002 -8.42609,-5.21846 -3.64438,-1.36302 -8.41304,-2.76571 -11.1108,-3.26821 -1.126288,-0.20979 -1.310201,-0.17736 -1.5875,0.27997 -0.422181,0.69628 -4.371666,3.15141 -8.209473,5.10328 l -3.13334,1.59358 0.03303,6.58753 c 0.01817,3.62314 0.1043,6.70284 0.191407,6.84378 0.09989,0.16163 4.717285,0.22047 12.503351,0.15935 11.433265,-0.0898 12.397545,-0.0625 13.056735,0.3686 1.35036,0.88316 1.66596,2.25334 2.17814,9.45636 0.088,1.23693 0.39073,4.63021 0.67284,7.54063 0.28211,2.91041 0.87169,9.37213 1.31019,14.35937 0.86902,9.88387 0.84915,10.28439 -0.5589,11.27063 -1.34541,0.94237 -3.66179,0.28103 -4.17532,-1.19208 -0.16218,-0.46522 -0.5953,-3.83235 -0.96248,-7.48252 -0.36719,-3.65016 -0.70044,-6.7456 -0.74056,-6.87876 -0.0885,-0.29365 -23.429458,-0.41737 -23.610068,-0.12514 -0.06865,0.11108 -0.152146,3.35503 -0.185544,7.20879 l -0.06072,7.00682 -0.644226,0.68556 c -0.859072,0.91419 -2.322777,1.29988 -3.446495,0.90815 -1.476786,-0.51481 -1.59782,-1.19072 -1.59782,-8.92298 0,-5.24995 -0.0776,-6.88625 -0.330729,-6.97399 -0.529994,-0.18371 -22.906297,-0.0765 -23.093447,0.11067 -0.0933,0.0933 -0.45288,3.06638 -0.79913,6.60691 -0.34624,3.54052 -0.75551,6.87741 -0.90948,7.41531 -0.58069,2.0286 -2.87091,2.7339 -4.48025,1.37973 -0.77877,-0.65529 -0.81405,-0.77295 -0.81405,-2.71521 0,-2.08171 1.12628,-15.7958 1.58946,-19.35397 0.14208,-1.09141 0.62266,-5.66342 1.06796,-10.16003 0.51663,-5.21676 0.9503,-8.44764 1.19829,-8.92719 0.88551,-1.71238 0.50852,-1.66804 14.24607,-1.67566 l 12.457598,-0.007 0.08365,-3.96875 c 0.04601,-2.18281 0.0038,-5.31872 -0.09371,-6.96868 l -0.177359,-2.99985 -0.832335,-0.2866 c -1.79915,-0.6195 -8.102124,-3.93824 -9.665974,-5.08948 l -1.6533,-1.21709 -3.11289,0.5287 c -5.0403,0.85606 -10.52069,2.82185 -13.44373,4.82222 -3.09949,2.12111 -5.7253,5.2502 -7.33391,8.73959 -2.24939,4.87933 -4.64606,17.27465 -5.69595,29.45878 -1.27746,14.82509 -1.405121,23.29099 -3.249795,23.23117 -4.103355,-0.13307 -4.018358,-6.64281 -3.556685,-10.46503 z m 94.468159,7.28044 c -2.48081,-0.17545 -2.3337,0.6595 -2.41814,-13.72416 -0.0405,-6.89707 -0.15955,-12.53635 -0.26458,-12.53172 -0.10503,0.005 -0.42208,0.18322 -0.70456,0.39688 -0.90533,0.68475 -1.98095,0.48262 -2.9609,-0.55642 -0.67088,-0.71134 -0.89113,-1.17968 -0.89113,-1.89484 0,-0.83092 0.20701,-1.13523 1.65204,-2.42856 2.66487,-2.3851 9.52528,-9.01765 14.09066,-13.62266 6.27493,-6.3294 12.33743,-12.18667 13.16185,-12.7163 1.61823,-1.03957 1.40208,-1.22224 16.42158,13.87753 13.2624,13.33329 13.94053,14.06163 13.94053,14.97279 0,1.26497 -1.40906,2.75692 -2.60376,2.75692 -0.44253,0 -0.87818,-0.11907 -0.96812,-0.26459 -0.0899,-0.14552 -0.26704,-0.26458 -0.39357,-0.26458 -0.12654,0 -0.26834,5.45253 -0.31512,12.11674 -0.0954,13.59578 -0.046,13.25497 -2.00078,13.79782 -0.92717,0.25749 -42.22232,0.33435 -45.746,0.0851 z m 13.5752,-5.20192 c 0.4578,-0.1451 0.47975,-0.58656 0.39904,-8.02827 -0.0948,-8.73766 0.0717,-10.29148 1.19723,-11.17683 0.64007,-0.50348 1.05564,-0.53413 7.19208,-0.53046 7.00696,0.004 7.34096,0.0604 8.33934,1.40403 0.52929,0.7123 0.56072,1.13847 0.68696,9.3138 0.0861,5.57386 0.23146,8.66635 0.41611,8.85069 0.18705,0.18674 1.99139,0.25875 5.29167,0.2112 l 5.00784,-0.0722 0.0686,-12.99044 0.0686,-12.99044 -2.18528,-2.23588 c -1.2019,-1.22973 -3.3759,-3.36792 -4.83111,-4.75153 -1.45521,-1.38362 -4.78144,-4.68185 -7.39162,-7.32941 -2.61019,-2.64756 -4.87919,-4.81375 -5.04223,-4.81375 -0.41597,0 -5.80896,5.1057 -13.27486,12.5677 l -6.35332,6.35 -0.17441,12.98694 c -0.0959,7.14281 -0.12401,13.0364 -0.0624,13.09687 0.1809,0.17757 10.1166,0.30629 10.64774,0.13794 z m 12.4184,-0.25422 c 0.0153,-0.0211 -0.0443,-3.16509 -0.13229,-6.98665 l -0.16,-6.9483 -3.175,-0.0632 -3.175,-0.0632 0.0305,6.79398 c 0.0168,3.73669 0.0914,6.95269 0.16587,7.14667 0.10523,0.27422 0.83427,0.33114 3.27676,0.25584 1.72778,-0.0533 3.15389,-0.11411 3.16913,-0.13521 z M 60.751381,97.883781 c -1.5715,-0.987051 -1.67017,-3.359216 -0.18821,-4.524922 0.65218,-0.513003 1.03876,-0.541201 7.41957,-0.541201 h 6.73155 l 0.77339,0.773397 c 1.21208,1.212081 0.85779,3.47418 -0.66046,4.216968 -0.30278,0.148133 -3.40801,0.342415 -6.90051,0.431738 -6.00429,0.153564 -6.39494,0.134184 -7.17533,-0.35598 z m 20.536784,-1.451925 c 0,-2.60815 0.809529,-5.61871 2.288039,-8.508989 1.681389,-3.286882 2.525162,-4.451594 4.887762,-6.746875 2.537714,-2.465405 5.871132,-4.576639 8.898178,-5.635699 1.989359,-0.696009 2.787866,-0.82604 5.683226,-0.925471 5.69585,-0.195605 9.78613,0.707279 13.78037,3.041863 6.3447,3.708388 10.82324,10.991449 11.46093,18.637883 l 0.17515,2.100227 -2.45774,-0.07659 -2.45773,-0.07659 -0.36122,-1.190625 c -0.19867,-0.654843 -0.55192,-2.009386 -0.78501,-3.010096 -1.72411,-7.402126 -6.38177,-12.134235 -13.32882,-13.541889 -3.93211,-0.796746 -9.444408,-0.144711 -13.332085,1.577016 -1.126572,0.498922 -2.152694,1.291629 -3.716571,2.871152 -2.539674,2.565083 -3.882225,4.922307 -4.667452,8.19502 -0.288866,1.203953 -0.719408,2.873616 -0.95676,3.710361 l -0.431548,1.521354 h -2.339359 -2.33936 z m 58.030165,1.691013 c -3.78433,-0.13747 -4.05373,-0.182633 -4.69636,-0.787269 -0.77827,-0.732268 -0.88452,-1.770817 -0.29733,-2.906314 0.68756,-1.329583 1.52405,-1.479336 8.26333,-1.479336 h 6.13419 l 0.79827,0.764789 c 1.02174,0.978884 1.24965,1.992685 0.6909,3.0732 -0.83858,1.621623 -1.33297,1.682211 -10.893,1.33493 z M 81.683831,76.455882 c -1.615375,-0.985121 -7.2059,-7.599957 -7.84896,-9.287069 -0.57935,-1.519957 -0.54885,-2.014975 0.17733,-2.877995 0.61839,-0.734913 0.87294,-0.841909 2.00296,-0.841909 h 1.29453 l 3.628537,3.713968 c 4.602186,4.710539 4.980145,5.236072 4.980145,6.924644 0,1.146434 -0.108489,1.40798 -0.86407,2.083091 -1.018107,0.90968 -2.184678,1.008416 -3.370472,0.28527 z m 42.894429,-0.480704 c -0.84058,-0.840578 -1.07421,-1.630814 -0.84436,-2.855997 0.25477,-1.358076 8.08101,-9.595031 9.34122,-9.831448 1.85997,-0.348932 4.03419,1.211289 3.67611,2.637979 -0.22928,0.913547 -2.69312,3.907039 -6.29531,7.648644 -2.87973,2.99118 -3.04089,3.113785 -4.08636,3.108854 -0.82104,-0.0039 -1.26107,-0.177803 -1.7913,-0.708032 z M 103.2795,67.515372 c -1.20934,-0.847056 -1.30661,-1.58598 -1.12212,-8.523783 l 0.1713,-6.441694 0.73929,-0.635909 c 0.5581,-0.480062 1.04984,-0.635909 2.00644,-0.635909 1.32285,0 1.73335,0.269397 2.419,1.5875 0.48626,0.934772 0.56951,12.220796 0.0989,13.41003 -0.59156,1.494949 -2.97168,2.179139 -4.31282,1.239765 z m -23.111817,91.192578 -0.07014,-7.66386 -10.698882,-0.0666 -10.69889,-0.0666 -0.17757,0.66396 c -0.0977,0.36517 -0.26331,2.02818 -0.36812,3.69558 -0.1048,1.66739 -0.3575,4.6985 -0.56155,6.73579 -0.20404,2.03729 -0.37334,3.85299 -0.37622,4.03489 -0.004,0.2596 2.47105,0.33073 11.50815,0.33073 h 11.513367 z m 28.899097,6.67168 c -0.002,-0.67946 -1.00541,-14.48594 -1.053,-14.48594 -5.0708,0 -21.536623,0.15062 -21.574568,0.19736 -0.03002,0.037 -0.138121,3.49027 -0.240221,7.67399 l -0.185638,7.60677 H 97.541384 109.06941 Z M 86.650979,124.68411 c 4.155352,-2.08518 5.780862,-3.13655 7.565677,-4.89343 2.439453,-2.40128 3.381998,-4.72591 2.560377,-6.31475 -0.23813,-0.46049 -0.704098,-0.94035 -1.035484,-1.06634 -0.331386,-0.12599 -4.344042,-0.30885 -8.917014,-0.40636 -8.505087,-0.18135 -16.737494,0.1118 -17.239584,0.61389 -0.43393,0.43392 -0.55492,2.70624 -0.21192,3.98004 0.61583,2.28703 3.21228,4.28151 10.856801,8.33973 1.527969,0.81115 2.819583,1.47663 2.870255,1.47883 0.05067,0.002 1.648573,-0.77702 3.550892,-1.73161 z"
       id="path33"
       sodipodi:nodetypes="ssssssssssssssssssssscsscccsssssssscssssssssssssccsccsscsssssscscssssssssssssscccsscsssccccsssssccscccsccccssccssscssssssssssscccssssssscccssssscssssssscssssssssscssscssscsscccccsscscccsssccccsssssssscs" /></g></svg>
